<?xml version="1.0" standalone="no"?>
<!DOCTYPE svg PUBLIC "-//W3C//DTD SVG 20010904//EN"
 "http://www.w3.org/TR/2001/REC-SVG-20010904/DTD/svg10.dtd">
<svg version="1.0" xmlns="http://www.w3.org/2000/svg"
 width="200.000000pt" height="200.000000pt" viewBox="0 0 200.000000 200.000000"
 preserveAspectRatio="xMidYMid meet">
<metadata>
Created by potrace 1.11, written by Peter Selinger 2001-2013
</metadata>
<g transform="translate(0.000000,200.000000) scale(0.100000,-0.100000)"
fill="#000000" stroke="none">
<path d="M855 1879 c-16 -4 -61 -15 -98 -25 -38 -9 -91 -27 -118 -40 -27 -13
-51 -24 -54 -24 -19 0 -162 -106 -221 -165 -169 -167 -249 -353 -259 -595 -6
-160 19 -280 91 -425 115 -232 327 -401 594 -472 91 -24 330 -24 420 0 177 48
302 119 425 242 131 130 203 259 244 436 26 113 22 313 -9 419 -44 152 -115
274 -225 386 -87 88 -148 132 -256 184 -129 61 -221 82 -374 85 -71 1 -143 -2
-160 -6z"/>
</g>
</svg>
